<?xml version="1.0" encoding="UTF-8"?><svg id="Layer_1" xmlns="http://www.w3.org/2000/svg" viewBox="0 0 266.042 27.412"><path d="M19.84,0l-8.814,20.544h-2.076L0,0h2.274l7.757,17.492L17.708,0h2.132ZM33.272,12.836c0-1.479-.313-2.791-.938-3.938-.626-1.147-1.488-2.042-2.587-2.687-1.1-.644-2.341-.967-3.725-.967s-2.63.323-3.739.967c-1.109.644-1.981,1.545-2.616,2.701-.636,1.156-.953,2.464-.953,3.924s.331,2.768.996,3.924c.663,1.156,1.587,2.061,2.772,2.715,1.185.654,2.545.981,4.08.981,1.194,0,2.289-.208,3.284-.626.995-.416,1.824-1.023,2.488-1.82l-1.137-1.308c-.568.645-1.242,1.133-2.019,1.464-.777.332-1.63.497-2.559.497-1.649,0-3.014-.478-4.094-1.436-1.081-.957-1.678-2.213-1.791-3.767h12.51l.029-.625ZM22.397,8.357c.976-.919,2.184-1.379,3.625-1.379,1.459,0,2.677.46,3.654,1.379.976.919,1.53,2.118,1.663,3.597h-10.605c.132-1.479.687-2.678,1.663-3.597M39.835,5.806c-.938.512-1.644,1.27-2.118,2.274v-2.928h-1.933l-.068,15.366h2.019l.068-8.03c0-1.744.445-3.099,1.336-4.066.891-.966,2.122-1.45,3.696-1.45l.483.028v-1.962c-1.384,0-2.545.256-3.483.768M54.328,18.022c-.285.246-.621.436-1.009.569-.389.133-.792.199-1.208.199-.834,0-1.474-.232-1.919-.697-.446-.465-.668-1.142-.668-2.033V6.882h5.845v-1.706h-5.845v-3.02h-2.018v3.02h-2.672v1.706h2.672v9.291c0,1.384.379,2.455,1.137,3.213.758.758,1.838,1.137,3.241,1.137.606,0,1.19-.09,1.748-.27.559-.18,1.028-.441,1.408-.782l-.711-1.45ZM57.614,2.483c-.284-.284-.427-.626-.427-1.024,0-.379.143-.711.427-.995.284-.284.635-.427,1.052-.427s.768.138,1.052.412c.285.275.427.602.427.981,0,.417-.142.768-.427,1.052-.284.284-.636.427-1.052.427s-.768-.142-1.052-.427M57.642,5.357h2.019v15.185h-2.019V5.357ZM77.357,9.965h4.208v7.983c-1.08.806-2.331,1.424-3.753,1.855-1.421.431-2.853.647-4.293.647-2.066,0-3.924-.436-5.573-1.307-1.649-.871-2.942-2.08-3.881-3.626-.938-1.546-1.407-3.293-1.407-5.242s.469-3.696,1.407-5.242c.938-1.546,2.241-2.754,3.909-3.625,1.668-.871,3.544-1.307,5.63-1.307,1.743,0,3.326.291,4.748.871,1.422.581,2.616,1.424,3.582,2.53l-2.957,2.698c-1.421-1.48-3.137-2.22-5.146-2.22-1.27,0-2.398.263-3.383.787-.986.525-1.754,1.265-2.303,2.22-.55.956-.825,2.052-.825,3.289,0,1.218.274,2.305.825,3.26.549.956,1.312,1.7,2.288,2.235.976.534,2.09.801,3.341.801,1.327,0,2.521-.281,3.582-.844v-5.762ZM84.835,20.407h4.606V.018h-4.606v20.389ZM95.141,19.816c1.469.422,2.99.633,4.563.633,1.82,0,3.365-.272,4.634-.816,1.27-.544,2.222-1.279,2.858-2.208.635-.928.952-1.954.952-3.079,0-1.313-.346-2.353-1.037-3.122-.692-.769-1.522-1.331-2.488-1.687-.967-.356-2.208-.712-3.725-1.069-1.46-.319-2.544-.642-3.255-.971-.711-.328-1.066-.83-1.066-1.505s.308-1.218.924-1.631c.616-.412,1.568-.619,2.857-.619,1.838,0,3.677.516,5.516,1.547l1.422-3.46c-.91-.563-1.971-.994-3.185-1.294-1.213-.3-2.455-.45-3.724-.45-1.82,0-3.36.272-4.62.816-1.261.544-2.204,1.279-2.829,2.207-.626.929-.939,1.964-.939,3.108,0,1.313.346,2.363,1.038,3.15.691.788,1.521,1.36,2.488,1.716.967.356,2.208.713,3.724,1.069.985.225,1.767.432,2.346.618.578.188,1.051.436,1.421.746s.555.699.555,1.168c0,.637-.313,1.149-.939,1.533-.625.385-1.592.577-2.9.577-1.176,0-2.351-.188-3.526-.563-1.175-.374-2.189-.872-3.042-1.491l-1.564,3.431c.891.675,2.071,1.223,3.54,1.645M196.523,4.021h-.799v-.208h1.839v.208h-.8v2.067h-.24v-2.067ZM200.308,3.813v2.274h-.231v-1.819l-.893,1.53h-.114l-.893-1.521v1.81h-.231v-2.274h.198l.988,1.687.978-1.687h.198ZM129.663,15.276c0,.99-.203,1.843-.604,2.534-.399.69-.946,1.259-1.624,1.69-.671.426-1.454.739-2.329.928-.866.188-1.79.284-2.746.284-.322,0-.723-.026-1.192-.076-.473-.051-.957-.125-1.44-.221-.49-.096-.96-.217-1.396-.36-.448-.146-.813-.31-1.085-.49l-.085-.056v-3.204l.311.268c.304.262.673.499,1.098.707.431.212.89.394,1.367.54.478.147.965.262,1.448.34.478.08.927.121,1.337.121,1.395,0,2.444-.251,3.119-.745.666-.489.99-1.175.99-2.098,0-.488-.11-.918-.329-1.276-.224-.367-.539-.709-.937-1.015-.408-.313-.899-.618-1.458-.906-.571-.294-1.187-.604-1.846-.93-.697-.344-1.358-.698-1.965-1.053-.613-.358-1.156-.76-1.612-1.195-.462-.443-.83-.948-1.093-1.503-.267-.56-.402-1.226-.402-1.977,0-.919.211-1.732.627-2.416.413-.679.964-1.245,1.635-1.685.665-.435,1.432-.763,2.282-.976.845-.211,1.717-.318,2.592-.318,1.993,0,3.473.24,4.398.714l.102.053v3.039l-.293-.198c-1.145-.772-2.64-1.164-4.444-1.164-.498,0-1.001.051-1.497.153-.489.1-.929.264-1.309.487-.375.221-.683.508-.916.853-.229.339-.345.761-.345,1.255,0,.466.089.871.264,1.204.178.337.446.651.796.933.362.291.81.577,1.33.85.525.276,1.145.586,1.843.922.715.344,1.406.712,2.052,1.094.652.387,1.232.821,1.722,1.291.496.474.896,1.007,1.19,1.587.296.587.445,1.265.445,2.015ZM139.229,8.369v-2.28h-3.601V1.901l-2.665.839v3.349h-3.201v2.28h3.201v8.05c0,2.831,1.326,4.266,3.942,4.266.91,0,1.658-.154,2.224-.457l.099-.054v-2.387l-.3.221c-.384.282-.849.425-1.382.425-.691,0-1.187-.178-1.473-.529-.296-.363-.446-.996-.446-1.879v-7.655h3.601ZM151.347,6.089v8.209c0,1.242-.348,2.259-1.033,3.021-.69.768-1.545,1.14-2.615,1.14-2.201,0-3.272-1.379-3.272-4.216V6.089h-2.651v8.508c0,4.058,1.782,6.115,5.295,6.115,1.857,0,3.293-.722,4.276-2.148v1.821h2.665V6.089h-2.665ZM170.812,20.197h-2.289v-2.365h-.055c-1.06,1.794-2.698,2.691-4.912,2.691-1.795,0-3.23-.623-4.304-1.869-1.075-1.246-1.612-2.943-1.612-5.091,0-2.302.595-4.146,1.786-5.533,1.19-1.387,2.776-2.079,4.758-2.079,1.962,0,3.391.752,4.284,2.256h.055V.327h2.289v19.871ZM168.523,13.903v-2.053c0-1.124-.381-2.075-1.144-2.855-.763-.78-1.73-1.169-2.902-1.169-1.395,0-2.493.499-3.293,1.495-.8.997-1.2,2.375-1.2,4.132,0,1.604.384,2.871,1.152,3.8.767.929,1.797,1.394,3.09,1.394,1.275,0,2.31-.448,3.105-1.346.795-.897,1.193-2.03,1.193-3.399M170.812,20.197h-2.289v-2.365h-.055c-1.06,1.794-2.698,2.691-4.912,2.691-1.795,0-3.23-.623-4.304-1.869-1.075-1.246-1.612-2.943-1.612-5.091,0-2.302.595-4.146,1.786-5.533,1.19-1.387,2.776-2.079,4.758-2.079,1.962,0,3.391.752,4.284,2.256h.055V.327h2.289v19.871ZM168.523,13.903v-2.053c0-1.124-.381-2.075-1.144-2.855-.763-.78-1.73-1.169-2.902-1.169-1.395,0-2.493.499-3.293,1.495-.8.997-1.2,2.375-1.2,4.132,0,1.604.384,2.871,1.152,3.8.767.929,1.797,1.394,3.09,1.394,1.275,0,2.31-.448,3.105-1.346.795-.897,1.193-2.03,1.193-3.399ZM176.789,3.511c-.409,0-.758-.138-1.047-.413-.288-.275-.433-.623-.433-1.044s.144-.772.433-1.051c.288-.279.638-.419,1.047-.419.418,0,.774.14,1.067.419.293.28.44.63.44,1.051,0,.403-.147.746-.44,1.03-.293.284-.649.426-1.067.426M177.905,20.407h-2.288V6.338h2.288v14.069ZM176.789,3.511c-.409,0-.758-.138-1.047-.413-.288-.275-.433-.623-.433-1.044s.144-.772.433-1.051c.288-.279.638-.419,1.047-.419.418,0,.774.14,1.067.419.293.28.44.63.44,1.051,0,.403-.147.746-.44,1.03-.293.284-.649.426-1.067.426ZM177.905,20.407h-2.288V6.338h2.288v14.069ZM188.684,20.524c-2.112,0-3.798-.65-5.059-1.951-1.26-1.3-1.89-3.025-1.89-5.172,0-2.338.656-4.164,1.968-5.478,1.312-1.314,3.084-1.971,5.316-1.971,2.13,0,3.793.639,4.988,1.917,1.195,1.278,1.793,3.05,1.793,5.316,0,2.22-.644,3.999-1.932,5.335-1.289,1.337-3.017,2.005-5.184,2.005M188.851,7.827c-1.47,0-2.633.487-3.488,1.461-.856.974-1.284,2.318-1.284,4.031,0,1.65.434,2.95,1.298,3.901.865.952,2.023,1.428,3.474,1.428,1.479,0,2.616-.466,3.411-1.4.796-.933,1.193-2.261,1.193-3.983,0-1.74-.397-3.081-1.193-4.024-.795-.942-1.932-1.414-3.411-1.414M188.684,20.524c-2.112,0-3.798-.65-5.059-1.951-1.26-1.3-1.89-3.025-1.89-5.172,0-2.338.656-4.164,1.968-5.478,1.312-1.314,3.084-1.971,5.316-1.971,2.13,0,3.793.639,4.988,1.917,1.195,1.278,1.793,3.05,1.793,5.316,0,2.22-.644,3.999-1.932,5.335-1.289,1.337-3.017,2.005-5.184,2.005ZM188.851,7.827c-1.47,0-2.633.487-3.488,1.461-.856.974-1.284,2.318-1.284,4.031,0,1.65.434,2.95,1.298,3.901.865.952,2.023,1.428,3.474,1.428,1.479,0,2.616-.466,3.411-1.4.796-.933,1.193-2.261,1.193-3.983,0-1.74-.397-3.081-1.193-4.024-.795-.942-1.932-1.414-3.411-1.414Z" style="fill:#fff;"/></svg>